<?xml version="1.0" standalone="no"?>
<!DOCTYPE svg PUBLIC "-//W3C//DTD SVG 20010904//EN"
 "http://www.w3.org/TR/2001/REC-SVG-20010904/DTD/svg10.dtd">
<svg version="1.0" xmlns="http://www.w3.org/2000/svg"
 width="512.000000pt" height="512.000000pt" viewBox="0 0 512.000000 512.000000"
 preserveAspectRatio="xMidYMid meet">

<g transform="translate(0.000000,512.000000) scale(0.100000,-0.100000)"
fill="#000000" stroke="none">
<path d="M1835 5109 c-322 -34 -587 -123 -792 -268 -257 -181 -414 -429 -480
-756 -16 -81 -18 -149 -18 -650 0 -505 2 -570 19 -660 46 -248 139 -438 278
-572 168 -161 462 -300 750 -353 62 -12 347 -54 633 -94 l520 -72 3 -57 3 -57
-913 0 c-548 0 -941 -4 -983 -10 -140 -20 -240 -93 -287 -209 -23 -55 -23 -65
-26 -536 -4 -509 -1 -547 43 -635 32 -62 100 -122 171 -151 l59 -24 1160 -3
c1209 -3 1305 -1 1514 39 496 96 863 381 1006 783 75 208 78 234 82 791 5 551
-1 659 -47 841 -65 260 -185 430 -407 577 -118 79 -229 132 -378 180 -151 49
-256 67 -820 142 -269 36 -505 68 -522 70 -36 6 -47 29 -41 81 l3 29 850 5
c579 4 860 9 880 16 130 47 206 133 234 262 15 73 15 951 0 1024 -25 118 -98
206 -205 249 l-59 24 -1075 1 c-591 1 -1111 -2 -1155 -7z m2212 -151 c66 -16
118 -71 133 -140 8 -37 10 -191 8 -518 l-3 -465 -25 -45 c-17 -29 -41 -53 -70
-70 l-45 -25 -860 -5 c-625 -4 -865 -8 -880 -17 -92 -53 -122 -186 -67 -294
46 -91 32 -87 642 -169 294 -39 580 -80 635 -91 305 -61 587 -210 721 -381 95
-121 158 -292 183 -493 6 -54 11 -280 11 -559 0 -510 -7 -601 -57 -760 -138
-441 -526 -709 -1107 -765 -70 -7 -518 -11 -1251 -11 -1268 0 -1214 -3 -1273
64 -51 58 -54 95 -50 601 3 453 3 461 25 501 12 23 39 53 60 65 l38 24 985 5
c935 5 987 6 1015 23 55 34 79 81 84 165 5 115 -22 182 -89 217 -14 7 -75 20
-135 29 -61 8 -319 45 -575 81 -256 36 -511 77 -568 90 -195 47 -385 135 -529
247 -141 108 -234 271 -284 495 -21 92 -22 129 -26 616 -5 566 1 651 53 821
104 331 347 566 710 685 109 36 303 75 414 84 25 2 514 4 1088 5 763 2 1056
-1 1089 -10z"/>
</g>
</svg>
